<?xml version="1.0" standalone="no"?>
<!DOCTYPE svg PUBLIC "-//W3C//DTD SVG 20010904//EN"
 "http://www.w3.org/TR/2001/REC-SVG-20010904/DTD/svg10.dtd">
<svg version="1.0" xmlns="http://www.w3.org/2000/svg"
 width="984.000000pt" height="984.000000pt" viewBox="0 0 984.000000 984.000000"
 preserveAspectRatio="xMidYMid meet">
<metadata>
Created by potrace 1.11, written by Peter Selinger 2001-2013
</metadata>
<g transform="translate(0.000000,984.000000) scale(0.100000,-0.100000)"
fill="#000000" stroke="none">
<path d="M2068 9835 c-2 -2 -21 -5 -43 -8 -136 -19 -219 -76 -275 -191 -16
-33 -31 -68 -32 -76 -2 -8 -5 -17 -8 -20 -8 -7 -60 -164 -66 -197 -3 -15 -10
-33 -16 -40 -6 -7 -8 -13 -5 -13 3 0 2 -14 -3 -31 -15 -50 -48 -219 -55 -274
-3 -27 -9 -70 -12 -95 -12 -94 -7 -560 7 -560 3 0 5 -15 6 -33 1 -39 9 -91 28
-182 6 -27 25 -105 32 -130 13 -44 4 -64 -69 -161 -42 -56 -77 -106 -77 -112
0 -6 -4 -12 -8 -14 -18 -7 -125 -198 -217 -388 -21 -44 -69 -175 -67 -182 1
-5 -2 -8 -8 -8 -5 0 -10 -8 -10 -18 0 -11 -9 -45 -21 -78 -23 -66 -23 -64 -34
-119 -12 -55 -12 -55 -15 -57 -2 -3 -8 -30 -15 -63 -2 -11 -6 -31 -9 -45 -9
-35 -14 -67 -22 -125 -3 -27 -8 -59 -10 -70 -27 -140 -21 -670 11 -920 2 -22
7 -59 10 -82 6 -54 16 -122 20 -148 2 -11 6 -36 9 -55 3 -19 8 -46 11 -60 4
-14 7 -34 9 -45 2 -11 15 -69 30 -130 15 -60 29 -117 31 -125 2 -8 8 -27 14
-42 6 -16 8 -28 5 -28 -4 0 -2 -6 4 -13 6 -7 13 -24 15 -38 3 -13 12 -41 20
-62 9 -21 16 -39 17 -42 2 -12 13 -43 26 -73 8 -18 14 -39 14 -47 0 -8 4 -15
8 -15 5 0 9 -6 9 -13 0 -23 128 -278 189 -378 80 -128 163 -245 217 -304 10
-11 28 -33 40 -48 39 -51 230 -234 317 -304 82 -67 259 -193 290 -206 8 -4 33
-18 55 -31 62 -39 282 -149 360 -180 39 -15 79 -32 90 -37 28 -12 78 -32 90
-35 6 -1 37 -12 70 -23 33 -12 67 -24 75 -26 8 -2 40 -11 70 -20 63 -18 198
-55 220 -60 8 -2 57 -13 109 -25 52 -11 98 -23 103 -26 4 -3 0 -20 -9 -37 -63
-118 -142 -407 -158 -582 -4 -38 -6 -149 -6 -244 1 -96 -1 -172 -4 -169 -4 3
-21 2 -38 -3 -18 -6 -43 -12 -57 -14 -24 -4 -64 -11 -105 -19 -11 -2 -49 -7
-85 -11 -36 -4 -74 -9 -85 -12 -27 -5 -312 -5 -350 1 -16 2 -52 7 -80 11 -27
4 -60 11 -72 16 -13 5 -23 6 -23 4 0 -3 -17 2 -37 10 -21 8 -47 15 -58 17 -26
4 -219 99 -223 110 -2 4 -8 8 -13 8 -36 0 -244 185 -357 318 -20 24 -50 57
-65 75 -15 18 -42 51 -59 74 -17 24 -35 43 -40 43 -4 0 -8 5 -8 12 0 7 -9 21
-20 33 -11 11 -54 63 -96 115 -125 157 -170 206 -299 325 -57 53 -95 85 -100
85 -3 0 -31 18 -62 40 -32 22 -62 40 -66 40 -5 0 -21 8 -35 18 -15 11 -40 24
-57 30 -16 6 -54 20 -84 31 -54 21 -99 30 -160 35 -74 6 -197 -51 -250 -116
-54 -67 -84 -188 -67 -267 9 -39 40 -111 49 -111 4 0 7 -5 7 -10 0 -28 129
-119 181 -127 30 -5 110 -43 157 -75 52 -36 167 -149 228 -224 21 -27 44 -54
49 -60 6 -6 21 -26 35 -44 14 -18 40 -49 57 -69 18 -20 33 -39 33 -43 0 -4 10
-17 23 -30 12 -13 35 -41 52 -63 30 -40 35 -47 120 -145 43 -50 254 -260 287
-285 96 -76 171 -129 235 -167 117 -69 173 -98 173 -92 0 4 10 0 23 -8 20 -14
130 -58 152 -62 6 -1 15 -4 20 -8 13 -7 78 -22 88 -20 4 1 7 -2 7 -6 0 -4 10
-9 23 -9 12 -1 51 -8 87 -16 61 -14 106 -21 210 -33 50 -6 357 -6 405 0 17 2
64 7 105 10 41 4 82 9 91 12 10 3 30 7 45 9 16 2 48 7 72 10 l42 7 0 -471 c0
-448 1 -475 20 -532 12 -33 26 -67 33 -75 46 -55 83 -87 129 -111 45 -23 65
-27 138 -27 70 -1 94 4 133 23 66 33 120 86 154 151 l28 55 2 960 c2 1005 3
1063 28 1172 46 207 139 377 307 564 51 57 75 124 80 224 1 24 -14 91 -23 99
-5 6 -9 18 -9 28 0 10 -4 18 -10 18 -5 0 -10 6 -10 14 0 16 -77 89 -116 109
-35 18 -94 34 -154 42 -25 3 -58 7 -75 9 -35 5 -220 35 -250 41 -11 2 -45 9
-75 15 -30 6 -66 13 -80 15 -47 6 -352 86 -360 95 -3 3 -10 6 -16 7 -6 1 -22
4 -35 7 -13 2 -46 14 -72 25 -27 12 -53 21 -58 21 -6 0 -29 8 -52 18 -23 11
-73 32 -110 47 -37 16 -70 32 -73 37 -3 4 -14 8 -25 8 -10 0 -19 3 -19 8 0 4
-15 14 -32 21 -34 15 -149 81 -158 91 -8 8 -43 29 -67 39 -11 6 -24 14 -27 20
-4 5 -26 23 -51 40 -59 40 -102 78 -210 186 -108 109 -265 311 -265 343 0 7
-4 12 -9 12 -11 0 -166 314 -176 355 -1 6 -5 19 -9 30 -5 11 -12 31 -16 45 -4
14 -11 34 -16 45 -4 11 -8 25 -9 30 -2 6 -12 42 -23 80 -23 80 -52 206 -58
250 -2 17 -6 41 -9 55 -13 60 -20 111 -30 210 -4 30 -8 71 -10 90 -24 198 -24
613 -1 735 2 11 7 43 11 72 3 28 18 93 31 145 14 51 26 100 28 108 4 15 61
173 73 200 3 8 7 17 8 20 4 13 90 186 95 190 8 7 63 101 72 123 4 9 12 17 18
17 5 0 10 6 10 14 0 8 6 21 14 29 8 8 37 43 63 78 27 35 72 89 101 119 87 92
126 195 108 285 -13 68 -19 91 -24 100 -4 6 -8 15 -9 20 -1 6 -16 57 -32 114
-17 58 -28 107 -26 109 2 3 0 12 -5 22 -5 9 -11 39 -14 66 -3 27 -6 49 -7 49
-3 0 -18 187 -20 250 -1 22 11 202 16 235 2 19 7 51 9 70 4 30 16 87 42 195 3
11 6 26 8 33 7 37 23 36 206 -8 92 -22 328 -111 412 -156 14 -8 31 -14 37 -14
7 0 17 -5 24 -10 7 -6 62 -35 122 -66 61 -31 117 -62 125 -68 8 -6 35 -22 60
-35 25 -14 76 -44 113 -68 37 -23 71 -43 76 -43 5 0 15 -7 22 -16 7 -9 22 -20
34 -25 25 -11 55 -30 73 -47 39 -35 108 -56 187 -55 44 0 87 2 95 5 8 3 33 9
55 13 55 12 55 12 58 15 2 2 20 6 57 14 14 3 34 8 45 10 60 14 165 36 195 41
19 3 42 8 50 10 8 2 31 7 50 9 19 3 46 7 60 10 14 2 48 8 75 11 28 4 61 9 75
11 14 1 48 5 75 8 28 3 70 8 95 11 49 5 138 12 265 20 102 7 489 7 580 1 199
-15 326 -27 425 -41 25 -4 56 -8 70 -10 14 -2 50 -6 80 -10 30 -4 58 -9 62
-11 4 -3 29 -7 55 -10 26 -2 62 -9 78 -14 17 -5 44 -11 60 -14 33 -5 72 -14
143 -30 9 -2 64 -16 122 -31 169 -43 240 -31 385 69 33 22 72 47 88 55 15 8
27 18 27 23 0 4 4 8 9 8 5 0 58 29 118 65 59 36 113 65 120 65 6 0 13 4 15 9
3 8 205 113 298 154 181 81 376 144 532 172 l36 7 15 -54 c19 -64 35 -135 43
-186 3 -20 7 -44 9 -52 21 -81 22 -391 0 -535 -13 -93 -58 -285 -75 -320 -27
-57 -47 -152 -43 -207 3 -67 38 -149 84 -200 92 -102 117 -131 155 -183 16
-22 32 -41 37 -43 4 -2 7 -10 7 -17 0 -7 3 -15 8 -17 20 -9 208 -353 219 -402
1 -6 16 -51 33 -100 17 -49 32 -96 34 -105 1 -9 8 -36 15 -61 14 -49 15 -52
26 -120 4 -25 9 -54 11 -65 26 -135 25 -723 -1 -766 -4 -5 -1 -9 5 -9 6 0 8
-5 3 -12 -8 -15 -8 -12 -17 -93 -13 -113 -25 -188 -38 -245 -5 -25 -12 -56
-14 -70 -11 -62 -60 -241 -82 -300 -13 -36 -24 -72 -24 -80 -1 -8 -7 -24 -14
-35 -8 -11 -14 -27 -14 -37 0 -10 -5 -18 -10 -18 -6 0 -9 -3 -8 -7 3 -17 -90
-212 -128 -268 -13 -20 -24 -38 -24 -41 0 -7 -44 -68 -55 -76 -5 -4 -6 -8 -2
-8 5 0 2 -6 -5 -13 -7 -8 -22 -26 -33 -42 -71 -100 -259 -293 -335 -345 -13
-8 -28 -20 -35 -27 -30 -28 -204 -138 -297 -188 -143 -75 -498 -216 -498 -198
0 3 -6 1 -12 -5 -7 -5 -26 -13 -43 -16 -16 -3 -82 -19 -145 -35 -63 -16 -128
-32 -145 -34 -16 -3 -66 -12 -110 -21 -138 -26 -243 -42 -398 -60 -159 -18
-258 -96 -305 -242 -12 -36 -8 -147 6 -184 5 -14 10 -29 10 -34 0 -5 4 -12 9
-15 4 -3 20 -22 34 -41 15 -19 41 -51 59 -70 40 -43 109 -140 143 -202 32 -57
88 -188 81 -188 -2 0 1 -10 8 -22 7 -13 11 -27 10 -31 -1 -4 2 -16 7 -25 5 -9
11 -35 15 -57 3 -22 8 -51 12 -65 3 -14 7 -477 8 -1030 1 -553 6 -1018 11
-1035 15 -52 90 -165 110 -165 3 0 15 -8 26 -19 28 -26 130 -53 187 -50 129 8
242 91 284 208 20 55 20 81 21 1051 1 970 -1 1068 -24 1181 -6 30 -12 63 -14
74 -4 24 -11 49 -24 93 -5 18 -11 36 -12 40 -1 4 -3 12 -4 17 -4 12 -35 104
-43 125 -3 8 -4 18 -4 23 1 4 -2 7 -8 7 -5 0 -10 6 -10 14 0 7 -7 26 -15 42
-8 16 -11 31 -7 35 4 4 61 18 127 33 66 14 170 40 230 57 61 17 135 37 165 46
30 8 61 20 68 25 7 6 15 8 19 5 3 -4 11 -3 17 2 6 5 56 26 111 46 154 58 325
139 454 217 34 21 65 38 67 38 7 0 99 65 102 72 2 4 8 8 13 8 9 0 99 68 203
153 102 82 288 280 375 397 22 30 44 60 49 66 5 5 15 21 22 35 7 13 16 26 19
29 12 9 91 139 91 149 0 5 4 11 8 13 11 4 122 232 162 332 28 73 109 300 110
311 0 3 0 6 1 8 1 2 -1 -3 38 152 27 109 47 209 56 275 2 14 4 25 5 25 1 0 3
14 5 30 2 17 6 48 9 70 6 42 15 123 22 190 19 184 26 661 11 785 -4 36 -10 83
-12 105 -2 22 -4 42 -5 45 -1 3 -3 10 -5 15 -1 6 -3 12 -4 15 -1 3 -4 21 -7
40 -9 73 -10 80 -17 86 -4 4 -7 21 -7 39 0 17 -5 36 -12 43 -7 7 -9 12 -6 12
4 0 0 24 -9 53 -8 28 -17 59 -18 67 -2 8 -4 15 -4 15 -1 0 -17 43 -35 95 -50
140 -60 164 -69 171 -5 3 -8 9 -8 13 1 3 0 8 0 11 -1 3 -2 8 -3 13 -4 15 -76
155 -87 168 -6 8 -8 14 -4 14 5 0 2 8 -6 18 -8 9 -23 33 -33 52 -42 78 -183
285 -228 334 -22 24 -22 39 -4 99 8 26 12 47 10 47 -2 0 0 10 5 23 5 13 12 41
15 62 4 21 8 47 11 59 2 12 7 37 9 56 3 19 8 51 11 70 3 19 7 68 9 108 2 40 6
75 7 77 5 5 1 246 -5 330 -7 91 -18 170 -37 262 -6 29 -12 63 -13 75 -2 13 -6
30 -8 38 -5 15 -66 226 -71 245 -1 6 -5 15 -8 20 -4 6 -12 28 -19 50 -29 88
-71 166 -114 209 -24 25 -51 46 -59 46 -8 0 -20 6 -26 14 -11 12 -30 18 -121
33 -53 9 -246 8 -320 -2 -36 -5 -75 -9 -87 -9 -13 -1 -23 -4 -23 -7 0 -3 -6
-6 -12 -6 -13 -1 -52 -8 -93 -17 -11 -3 -51 -15 -90 -26 -38 -12 -88 -26 -110
-31 -21 -6 -45 -14 -51 -20 -7 -5 -16 -9 -20 -8 -5 1 -18 -1 -29 -6 -148 -60
-192 -79 -251 -105 -151 -68 -434 -217 -454 -240 -3 -3 -12 -6 -20 -8 -8 -2
-29 -14 -47 -28 -17 -13 -34 -24 -37 -24 -3 0 -36 -19 -73 -43 l-68 -43 -70
17 c-38 10 -71 16 -74 14 -2 -3 -10 0 -18 6 -7 6 -13 9 -13 6 0 -3 -15 -1 -32
4 -43 12 -348 66 -424 74 -18 2 -53 6 -78 9 -368 45 -690 58 -1051 40 -88 -4
-177 -8 -197 -8 -21 -1 -38 -3 -38 -6 0 -3 -19 -6 -43 -6 -54 -2 -164 -12
-201 -19 -15 -3 -47 -8 -70 -10 -56 -5 -95 -11 -286 -47 -91 -16 -171 -30
-177 -31 -7 0 -13 -3 -13 -7 0 -4 -10 -6 -22 -5 -13 1 -29 -2 -35 -8 -7 -5
-13 -7 -13 -4 0 3 -21 0 -47 -7 -46 -12 -49 -11 -98 20 -27 18 -54 37 -60 41
-5 4 -27 17 -47 28 -21 11 -38 23 -38 27 0 5 -7 8 -16 8 -9 0 -28 8 -42 19
-15 10 -58 35 -97 56 -38 21 -73 42 -76 48 -3 5 -9 8 -13 7 -4 0 -73 31 -154
70 -81 39 -156 75 -167 80 -11 4 -33 13 -50 21 -16 7 -32 13 -35 14 -3 1 -16
6 -30 12 -37 15 -241 85 -259 88 -9 2 -16 4 -16 5 0 2 -16 6 -50 14 -11 2 -20
5 -20 6 0 2 -21 6 -69 14 -21 3 -41 8 -45 10 -6 4 -23 7 -126 22 -44 6 -272
14 -277 9z"/>
</g>
</svg>
